<svg width="36" height="36" viewBox="0 0 36 36" fill="none" xmlns="http://www.w3.org/2000/svg">
<path d="M30.375 27C29.8737 27.0025 29.3793 27.1182 28.9289 27.3384L24.0909 22.5H20.25V24.75H23.1591L27.3381 28.9292C27.1182 29.3796 27.0027 29.8738 27 30.375C27 31.0425 27.1979 31.695 27.5688 32.25C27.9396 32.8051 28.4667 33.2376 29.0834 33.4931C29.7001 33.7485 30.3787 33.8154 31.0334 33.6852C31.6881 33.5549 32.2895 33.2335 32.7615 32.7615C33.2335 32.2895 33.5549 31.6881 33.6852 31.0334C33.8154 30.3787 33.7485 29.7001 33.4931 29.0834C33.2376 28.4667 32.8051 27.9396 32.25 27.5688C31.695 27.1979 31.0425 27 30.375 27ZM30.375 31.5C30.1525 31.5 29.935 31.434 29.75 31.3104C29.565 31.1868 29.4208 31.0111 29.3356 30.8055C29.2505 30.6 29.2282 30.3738 29.2716 30.1555C29.315 29.9373 29.4222 29.7368 29.5795 29.5795C29.7368 29.4222 29.9373 29.315 30.1555 29.2716C30.3738 29.2282 30.6 29.2505 30.8055 29.3356C31.0111 29.4208 31.1868 29.565 31.3104 29.75C31.434 29.935 31.5 30.1525 31.5 30.375C31.4997 30.6733 31.3811 30.9593 31.1702 31.1702C30.9593 31.3811 30.6733 31.4997 30.375 31.5Z" fill="#00381D"/>
<path d="M30.375 14.625C29.6793 14.6271 29.0013 14.8445 28.4342 15.2474C27.867 15.6503 27.4384 16.2188 27.2073 16.875H20.25V19.125H27.2073C27.4146 19.7067 27.7778 20.2203 28.2573 20.6095C28.7367 20.9988 29.3139 21.2488 29.9257 21.3322C30.5376 21.4156 31.1607 21.3293 31.7268 21.0826C32.2929 20.8358 32.7803 20.4383 33.1358 19.9333C33.4913 19.4283 33.7011 18.8354 33.7424 18.2192C33.7836 17.603 33.6548 16.9874 33.3698 16.4395C33.0849 15.8916 32.6548 15.4326 32.1267 15.1126C31.5985 14.7926 30.9925 14.6239 30.375 14.625ZM30.375 19.125C30.1525 19.125 29.935 19.059 29.75 18.9354C29.565 18.8118 29.4208 18.6361 29.3356 18.4305C29.2505 18.225 29.2282 17.9988 29.2716 17.7805C29.315 17.5623 29.4222 17.3618 29.5795 17.2045C29.7368 17.0472 29.9373 16.94 30.1555 16.8966C30.3738 16.8532 30.6 16.8755 30.8055 16.9606C31.0111 17.0458 31.1868 17.19 31.3104 17.375C31.434 17.56 31.5 17.7775 31.5 18C31.4997 18.2983 31.3811 18.5843 31.1702 18.7952C30.9593 19.0061 30.6733 19.1247 30.375 19.125Z" fill="#00381D"/>
<path d="M30.375 2.25C29.4802 2.25098 28.6223 2.60688 27.9896 3.2396C27.3569 3.87232 27.001 4.7302 27 5.625C27.0039 6.16395 27.1382 6.69394 27.3916 7.16963L23.1702 11.25H20.25V13.5H24.0798L29.0286 8.71605C29.4883 8.91644 29.987 9.01182 30.4882 8.99523C30.9894 8.97864 31.4806 8.85051 31.9261 8.62017C32.3716 8.38982 32.7601 8.06305 33.0634 7.66364C33.3667 7.26422 33.5771 6.80222 33.6793 6.31124C33.7815 5.82027 33.773 5.31268 33.6544 4.82541C33.5357 4.33814 33.3099 3.88346 32.9934 3.49445C32.6769 3.10544 32.2777 2.79188 31.8247 2.57661C31.3718 2.36134 30.8765 2.24976 30.375 2.25ZM30.375 6.75C30.1525 6.75 29.935 6.68402 29.75 6.5604C29.565 6.43679 29.4208 6.26109 29.3356 6.05552C29.2505 5.84995 29.2282 5.62375 29.2716 5.40552C29.315 5.18729 29.4222 4.98684 29.5795 4.82951C29.7368 4.67217 29.9373 4.56503 30.1555 4.52162C30.3738 4.47821 30.6 4.50049 30.8055 4.58564C31.0111 4.67078 31.1868 4.81498 31.3104 4.99998C31.434 5.18499 31.5 5.4025 31.5 5.625C31.4997 5.92329 31.3811 6.20928 31.1702 6.4202C30.9593 6.63112 30.6733 6.74973 30.375 6.75Z" fill="#00381D"/>
<path d="M20.25 6.75H22.5V4.5H20.25C19.6089 4.50215 18.9757 4.64213 18.3934 4.91044C17.811 5.17875 17.2932 5.56912 16.875 6.05509C16.4568 5.56912 15.939 5.17875 15.3566 4.91044C14.7743 4.64213 14.1411 4.50215 13.5 4.5H12.375C9.6906 4.50298 7.11699 5.57067 5.21883 7.46883C3.32067 9.36699 2.25298 11.9406 2.25 14.625V21.375C2.25298 24.0594 3.32067 26.633 5.21883 28.5312C7.11699 30.4293 9.6906 31.497 12.375 31.5H13.5C14.1411 31.4978 14.7743 31.3579 15.3566 31.0896C15.939 30.8213 16.4568 30.4309 16.875 29.9449C17.2932 30.4309 17.811 30.8213 18.3934 31.0896C18.9757 31.3579 19.6089 31.4978 20.25 31.5H22.5V29.25H20.25C19.6535 29.2493 19.0816 29.012 18.6598 28.5902C18.238 28.1684 18.0007 27.5965 18 27V9C18.0007 8.40347 18.238 7.83157 18.6598 7.40977C19.0816 6.98796 19.6535 6.75068 20.25 6.75ZM13.5 29.25H12.375C10.4832 29.2467 8.65578 28.5629 7.22646 27.3236C5.79714 26.0843 4.86134 24.3722 4.59 22.5H6.75V20.25H4.5V15.75H7.875C8.7698 15.749 9.62768 15.3931 10.2604 14.7604C10.8931 14.1277 11.249 13.2698 11.25 12.375V10.125H9V12.375C8.99973 12.6733 8.88112 12.9593 8.6702 13.1702C8.45928 13.3811 8.17329 13.4997 7.875 13.5H4.59C4.86134 11.6278 5.79714 9.91566 7.22646 8.67636C8.65578 7.43707 10.4832 6.75331 12.375 6.75H13.5C14.0965 6.75068 14.6684 6.98796 15.0902 7.40977C15.512 7.83157 15.7493 8.40347 15.75 9V13.5H13.5V15.75H15.75V20.25H13.5C12.6052 20.251 11.7473 20.6069 11.1146 21.2396C10.4819 21.8723 10.126 22.7302 10.125 23.625V25.875H12.375V23.625C12.3753 23.3267 12.4939 23.0407 12.7048 22.8298C12.9157 22.6189 13.2017 22.5003 13.5 22.5H15.75V27C15.7493 27.5965 15.512 28.1684 15.0902 28.5902C14.6684 29.012 14.0965 29.2493 13.5 29.25Z" fill="#00381D"/>
</svg>
