<svg width="36" height="36" viewBox="0 0 36 36" fill="none" xmlns="http://www.w3.org/2000/svg">
<path d="M24.2597 7.7467H17.6551C17.3172 7.7467 17.0434 8.02057 17.0434 8.35842C17.0434 8.69627 17.3172 8.97014 17.6551 8.97014H23.6481V14.8395C23.6481 17.9538 21.1144 20.4875 18.0001 20.4875C14.8857 20.4875 12.3521 17.9538 12.3521 14.8395V8.97014H14.7026C15.0406 8.97014 15.3144 8.69627 15.3144 8.35842C15.3144 8.02057 15.0406 7.7467 14.7026 7.7467H11.7404C11.4025 7.7467 11.1287 8.02057 11.1287 8.35842V14.8395C11.1287 18.6284 14.2111 21.7109 18.0001 21.7109C21.789 21.7109 24.8715 18.6285 24.8715 14.8395V8.35842C24.8715 8.02057 24.5977 7.7467 24.2597 7.7467Z" fill="#2A1D95"/>
<path d="M22.8199 12.3555C22.5641 11.1001 21.5997 10.2888 20.3629 10.2888C19.6214 10.2888 18.8116 10.5798 18.0001 11.1343C17.1885 10.5797 16.3788 10.2888 15.6374 10.2888C14.4008 10.2888 13.4365 11.1 13.1807 12.3554C12.9712 13.3834 13.252 14.5372 13.9715 15.6041C14.775 16.7955 16.0853 17.8019 17.7607 18.5143C17.8372 18.5468 17.9187 18.5631 18.0001 18.5631C18.0815 18.5631 18.1629 18.5469 18.2394 18.5143C19.9151 17.8019 21.2254 16.7955 22.0289 15.6041C22.7485 14.5372 23.0295 13.3835 22.8199 12.3555ZM18.0002 17.2834C14.6948 15.7865 14.18 13.5784 14.3794 12.5997C14.5203 11.9086 14.9788 11.5122 15.6374 11.5122C16.0418 11.5122 16.7146 11.6617 17.6225 12.3738C17.8443 12.5477 18.1559 12.5476 18.3775 12.3738C19.2856 11.6617 19.9583 11.5122 20.3629 11.5122C21.0217 11.5122 21.4804 11.9085 21.6212 12.5998C21.8206 13.5785 21.3058 15.7864 18.0002 17.2834Z" fill="#2A1D95"/>
<path d="M23.1728 6.72699C23.5231 6.72699 23.8072 6.44295 23.8072 6.09256C23.8072 5.74217 23.5231 5.45813 23.1728 5.45813C22.8224 5.45813 22.5383 5.74217 22.5383 6.09256C22.5383 6.44295 22.8224 6.72699 23.1728 6.72699Z" fill="#2A1D95"/>
<path d="M20.726 6.72699C21.0764 6.72699 21.3604 6.44295 21.3604 6.09256C21.3604 5.74217 21.0764 5.45813 20.726 5.45813C20.3756 5.45813 20.0916 5.74217 20.0916 6.09256C20.0916 6.44295 20.3756 6.72699 20.726 6.72699Z" fill="#2A1D95"/>
<path d="M29.6588 9.40873C29.0126 8.66299 28.1553 8.13663 27.2096 7.89581C26.5228 3.43041 22.6545 0 17.9999 0C15.9023 0 13.9215 0.680766 12.2714 1.96875C12.0051 2.17666 11.9577 2.56106 12.1657 2.82734C12.3736 3.09361 12.758 3.141 13.0242 2.93309C14.4573 1.81455 16.1778 1.22337 18 1.22337C22.1805 1.22337 25.6308 4.40887 26.0515 8.4799C26.0583 8.54564 26.0649 8.61771 26.0702 8.68606C26.2445 10.9252 26.0948 13.2262 26.0948 15.4716C26.0948 15.5808 26.0948 15.69 26.0948 15.7992C26.0948 19.1552 23.8986 22.2782 20.74 23.4163C20.5859 23.4719 20.43 23.5225 20.2726 23.5682C18.9872 23.9413 17.6145 23.9932 16.3048 23.7149C13.16 23.0475 10.6139 20.391 10.035 17.2361C9.94814 16.7624 9.90511 16.2806 9.90511 15.7992V9.31816C9.90511 9.07959 9.91924 8.84236 9.9371 8.60463C10.0637 7.14748 10.5771 5.76527 11.4428 4.57172C11.6411 4.29827 11.5803 3.91584 11.3067 3.71735C11.0333 3.51907 10.6506 3.57982 10.4523 3.85341C9.57527 5.06278 9.012 6.43985 8.78974 7.89581C7.84425 8.13684 6.98714 8.66306 6.34097 9.40866C5.58377 10.2825 5.16675 11.4012 5.16675 12.5587C5.16675 13.7161 5.58377 14.8348 6.34097 15.7087C6.98714 16.4544 7.84439 16.9807 8.79002 17.2216C9.31814 20.6549 11.7273 23.4757 14.9283 24.5966V26.2888C14.4033 26.37 13.8877 26.496 13.3878 26.6656C12.7848 26.8704 12.2036 27.1394 11.6561 27.4646C8.8713 29.118 7.14147 32.1543 7.14147 35.3882C7.14147 35.7261 7.41527 35.9999 7.75319 35.9999C7.75319 35.9999 11.9684 35.9999 11.9688 35.9999C11.9688 35.9999 24.031 35.9999 24.0313 35.9999H28.2465C28.5845 35.9999 28.8583 35.7261 28.8583 35.3882C28.8583 32.1541 27.1284 29.118 24.3436 27.4646C24.3405 27.4627 24.3371 27.4615 24.334 27.4596C24.3315 27.4582 24.3293 27.4564 24.3268 27.455C23.8072 27.1479 23.2582 26.8922 22.6947 26.6948C22.1697 26.5108 21.6259 26.3748 21.0714 26.2888V24.5965C24.2725 23.4757 26.6816 20.6549 27.2097 17.2216C28.1554 16.9806 29.0127 16.4543 29.6588 15.7087C30.416 14.8348 30.8331 13.7161 30.8331 12.5587C30.8331 11.4012 30.416 10.2826 29.6588 9.40873ZM8.68237 15.9048C7.33455 15.3777 6.39026 14.0523 6.39026 12.5587C6.39026 11.0651 7.33448 9.73969 8.68237 9.21263C8.68195 9.24785 8.68174 9.28301 8.68174 9.31816V15.7993C8.68174 15.8344 8.68195 15.8696 8.68237 15.9048ZM11.3568 34.7766H8.38875C8.56003 32.5787 9.6465 30.5355 11.3568 29.1582V34.7766ZM24.6431 29.1581C26.3534 30.5354 27.4398 32.5785 27.6111 34.7766H24.6431V29.1581ZM22.2902 27.8494C22.6765 27.9847 23.0551 28.1518 23.4197 28.3477V34.7766H12.5802V28.3472C12.9444 28.1515 13.3225 27.9846 13.7068 27.8499L13.7847 27.8228C14.3659 27.6256 14.9757 27.4963 15.5973 27.438C15.9116 27.4085 16.152 27.1447 16.152 26.829V24.9334C16.1526 24.9446 16.3483 24.9706 16.3654 24.9737C16.4442 24.9878 16.5235 25.0005 16.6026 25.0125C17.0647 25.0825 17.5327 25.1174 18.0001 25.1174C18.4587 25.1174 18.9096 25.0835 19.3507 25.0192C19.5171 24.9948 19.6833 24.9666 19.8482 24.9334V26.8289C19.8482 27.1445 20.0884 27.4084 20.4028 27.4378C21.0498 27.4988 21.6848 27.6372 22.2902 27.8494ZM27.3174 15.9048C27.3255 15.1893 27.3181 14.4732 27.3181 13.7577C27.3181 12.6205 27.3181 11.4834 27.3181 10.3462C27.3181 10.2523 27.3188 9.21255 27.3174 9.21255C28.6653 9.73955 29.6096 11.065 29.6096 12.5587C29.6096 14.0524 28.6653 15.3778 27.3174 15.9048Z" fill="#2A1D95"/>
</svg>
