<svg width="36" height="36" viewBox="0 0 36 36" fill="none" xmlns="http://www.w3.org/2000/svg">
<path d="M18.2153 0.406094C16.0039 0.686893 14.0444 1.48681 12.3441 2.81953C12.0273 3.07153 11.6525 3.38869 11.5229 3.53269L11.2709 3.79189H8.14435H5.01055L5.05375 4.56265C5.16175 6.55093 6.07687 8.26525 7.63279 9.41797L8.12995 9.78553L7.81315 10.0015C7.64035 10.1167 7.40959 10.3183 7.30159 10.4555C7.11439 10.7075 7.10719 10.7075 6.56683 10.7075C5.78167 10.7075 5.50051 10.8155 5.03251 11.2839C4.58575 11.7234 4.45615 12.0402 4.45615 12.667V13.063L4.15375 13.1494C2.92903 13.5094 1.87747 14.6621 1.64671 15.8868C1.60351 16.1028 1.57471 17.3995 1.57471 18.8403C1.57471 21.6209 1.60351 21.8657 1.97827 22.6077C2.20867 23.0616 2.86423 23.7676 3.28939 24.0124C3.92335 24.3871 4.29811 24.4807 5.32807 24.5311C6.13483 24.5743 6.35839 24.6103 6.65359 24.7543C7.10035 24.9703 7.48195 25.3523 7.70551 25.8063C7.87831 26.1519 7.87831 26.1951 7.89991 28.3925L7.92151 30.6328L7.66951 30.7192C7.21555 30.8848 6.37279 31.4971 5.89723 32.0015C5.09047 32.8731 4.60771 33.8962 4.49251 34.9985L4.44211 35.4885H5.02567H5.60923V35.2149C5.61643 34.0405 6.49519 32.5782 7.53991 32.0091L7.91467 31.8075V33.6445V35.4888H8.49103H9.06739V33.4717V31.4547H11.5744H14.0743L16.7613 33.5509L19.4411 35.64L22.1282 33.5509L24.808 31.4547H27.2935C30.0885 31.4547 30.3481 31.4907 31.198 31.9374C32.3651 32.5498 33.2655 33.9761 33.2727 35.2152V35.4888H33.8491C34.519 35.4888 34.4974 35.5248 34.3246 34.6101C34.1086 33.5009 33.5899 32.5642 32.7399 31.7646C32.1059 31.1667 31.6016 30.8643 30.7732 30.5615L30.1393 30.3383L27.6754 30.3167L25.2044 30.2879V28.3356L25.2116 26.3761L25.6223 26.1313C28.1852 24.5895 30.1591 21.7656 30.7354 18.7974C30.8506 18.2283 30.9298 18.0123 31.1462 17.6951C31.4774 17.2123 31.7729 16.5784 31.9385 16.002C32.1257 15.3609 32.1833 12.1407 32.0177 11.5067C31.8449 10.8151 31.4054 10.1884 30.8794 9.87157C30.8218 9.83557 30.6922 9.46801 30.5842 9.06481C29.4603 4.72105 25.9305 1.39321 21.5504 0.550091C20.65 0.377293 19.0221 0.305294 18.2153 0.406094ZM21.6371 1.70281C24.7853 2.37997 27.3568 4.40425 28.7687 7.32889C29.1435 8.11405 29.5899 9.43957 29.5035 9.52597C29.4171 9.61957 28.6248 9.41077 28.1204 9.16597C27.0832 8.66881 26.7157 8.17921 25.8441 6.14053C25.5125 5.36257 25.2245 4.72861 25.2029 4.72861C25.1813 4.72861 24.893 5.36257 24.5618 6.14053C23.9134 7.65325 23.5675 8.24401 23.0923 8.66197C22.7175 8.98597 21.9179 9.38233 21.4208 9.48313C21.1688 9.53354 19.3245 9.55513 15.6867 9.54073L10.327 9.51913L9.82267 9.34633C8.90791 9.04357 8.35315 8.70517 7.69759 8.04241C6.88363 7.23565 6.42247 6.33493 6.22807 5.17537L6.18487 4.94497H8.93671H11.6813L12.2433 4.40461C13.8928 2.83429 15.8667 1.86877 18.0782 1.55917C18.8637 1.45081 20.8232 1.53001 21.6371 1.70281ZM25.3397 7.82605C25.4549 8.16481 25.8873 8.77681 26.2977 9.18757L26.6653 9.55513H25.2029H23.7478L24.245 9.02197C24.5333 8.71201 24.8357 8.29441 24.9581 8.04961C25.0733 7.81201 25.1885 7.61005 25.2177 7.61005C25.2389 7.61005 25.2965 7.71085 25.3397 7.82605ZM30.5698 11.0103C30.6994 11.1543 30.8434 11.3919 30.8866 11.5506C30.9298 11.709 30.9658 12.5446 30.9658 13.5245C30.9658 14.9796 30.9442 15.304 30.8218 15.7792C30.6274 16.5355 30.3751 16.9751 29.7771 17.5803C28.3292 19.0426 26.0673 19.1794 24.4534 17.9043L24.1006 17.6235H19.4253H14.7428L14.462 17.8683C13.8064 18.423 12.8557 18.7758 11.9765 18.7758C11.4074 18.7758 10.5358 18.5526 9.99547 18.2643C9.43351 17.9615 8.61955 17.1043 8.33875 16.5208C7.95715 15.714 7.90639 15.2673 7.92799 13.2142C7.94959 11.4783 7.95679 11.3555 8.10079 11.1611C8.17999 11.0531 8.35999 10.9019 8.49715 10.8299C8.72755 10.7147 9.36871 10.7075 19.5333 10.7219L30.3319 10.7435L30.5698 11.0103ZM6.76123 13.5893V15.318H6.32887C5.60851 15.318 5.60851 15.3108 5.60851 13.5889C5.60851 11.8671 5.60851 11.8599 6.32887 11.8599H6.76123V13.5893ZM4.45579 14.5833C4.45579 15.0876 4.64299 15.5556 4.97455 15.8944C5.39971 16.3411 5.73811 16.4707 6.48727 16.4707H7.11403L7.28683 16.8455C7.38043 17.0543 7.58203 17.4003 7.72639 17.6163C7.94239 17.9331 8.02159 18.1494 8.13715 18.7546C8.54071 20.8365 9.65707 22.9471 11.1626 24.4599C11.8109 25.1226 12.7113 25.8358 13.3093 26.1745L13.6768 26.3761V28.3356V30.2951L11.3717 30.3167L9.06667 30.3383V28.4292C9.06667 26.3545 9.02347 26.0305 8.66311 25.317C8.43271 24.8631 7.77715 24.1571 7.35199 23.9123C6.71803 23.5379 6.34327 23.4439 5.31331 23.3935C4.50655 23.3503 4.28335 23.3143 3.98779 23.1703C3.54103 22.9543 3.15943 22.5724 2.93587 22.1188L2.76307 21.7656V18.7762V15.7867L2.93587 15.4339C3.15187 14.9944 3.53383 14.6056 3.95179 14.3964C4.41259 14.1653 4.45579 14.1797 4.45579 14.5833ZM24.0358 19.0426C25.4909 20.0081 27.5152 20.1953 28.9991 19.5037C29.2439 19.3813 29.4531 19.3093 29.4531 19.3381C29.4531 19.5181 29.0207 20.6133 28.7327 21.1968C28.0484 22.5367 26.9248 23.8551 25.7361 24.6906C24.7562 25.3894 22.0043 26.8949 21.2408 27.1473C20.5996 27.3633 20.4916 27.3777 19.4761 27.3777C18.3233 27.3777 17.8769 27.2985 17.0986 26.9525C16.4503 26.6717 13.7488 25.1226 13.1437 24.6906C11.9405 23.8407 10.7518 22.4359 10.1035 21.1176C9.82987 20.5485 9.42631 19.4969 9.42631 19.3457C9.42631 19.3169 9.62791 19.3817 9.88027 19.4969C11.4074 20.1885 13.3669 20.0157 14.8004 19.0645L15.2255 18.7837L19.4325 18.7765H23.6395L24.0358 19.0426ZM15.6939 27.5069C17.1202 28.2777 18.0494 28.5369 19.4397 28.5369C20.83 28.5369 21.7595 28.2777 23.1855 27.5069C23.6035 27.2837 23.9635 27.0817 23.9995 27.0745C24.0283 27.0601 24.0499 27.8525 24.0427 28.8396V30.6263L21.7376 32.4058L19.4393 34.1925L17.1415 32.4058L14.8364 30.6263V28.8396C14.8292 27.8525 14.8508 27.0601 14.8868 27.0745C14.9159 27.0817 15.2759 27.2837 15.6939 27.5069Z" fill="#412D00"/>
<path d="M10.219 15.3179V15.8943H17.999H25.7789V15.3179V14.7416H17.999H10.219V15.3179Z" fill="#412D00"/>
<path d="M26.9321 15.3179V15.8943H27.7965H28.6608V15.3179V14.7416H27.7965H26.9321V15.3179Z" fill="#412D00"/>
</svg>
